<?xml version="1.0" encoding="UTF-8" standalone="no"?>
<!-- Created with Inkscape (http://www.inkscape.org/) -->

<svg
   width="2071.5022mm"
   height="2071.5015mm"
   viewBox="0 0 2071.5022 2071.5015"
   version="1.1"
   id="svg1"
   inkscape:version="1.4.2 (ebf0e940, 2025-05-08)"
   sodipodi:docname="logo brainstorming.svg"
   xmlns:inkscape="http://www.inkscape.org/namespaces/inkscape"
   xmlns:sodipodi="http://sodipodi.sourceforge.net/DTD/sodipodi-0.dtd"
   xmlns="http://www.w3.org/2000/svg"
   xmlns:svg="http://www.w3.org/2000/svg">
  <sodipodi:namedview
     id="namedview1"
     pagecolor="#ffffff"
     bordercolor="#000000"
     borderopacity="0.25"
     inkscape:showpageshadow="2"
     inkscape:pageopacity="0.0"
     inkscape:pagecheckerboard="0"
     inkscape:deskcolor="#d1d1d1"
     inkscape:document-units="mm"
     inkscape:zoom="0.024503564"
     inkscape:cx="-4754.4104"
     inkscape:cy="161262.26"
     inkscape:window-width="1920"
     inkscape:window-height="1052"
     inkscape:window-x="1512"
     inkscape:window-y="28"
     inkscape:window-maximized="0"
     inkscape:current-layer="layer1">
    <inkscape:page
       x="0"
       y="0"
       width="2071.5022"
       height="2071.5015"
       id="page2"
       margin="0"
       bleed="0" />
  </sodipodi:namedview>
  <defs
     id="defs1" />
  <g
     inkscape:label="Layer 1"
     inkscape:groupmode="layer"
     id="layer1"
     transform="translate(5558.9259,-41659.632)">
    <rect
       style="fill:none;fill-opacity:1;stroke:none;stroke-width:6.30218;stroke-linejoin:round;stroke-miterlimit:5.6;stroke-dasharray:none;stroke-opacity:1"
       id="rect17"
       width="2071.5022"
       height="2071.5022"
       x="-5558.9258"
       y="41659.629"
       inkscape:export-filename="assets/img/favicon.svg"
       inkscape:export-xdpi="96"
       inkscape:export-ydpi="96" />
    <g
       id="g19">
      <path
         id="path11-3-1-8-9-1-3-4"
         style="fill:#71a63b;stroke:#000000;stroke-width:10.185;stroke-linejoin:round;stroke-miterlimit:5.6;stroke-opacity:1"
         d="m -4452.6104,43445.381 144.3387,250 h 288.6759 l 144.337,-249.999 -144.3371,-250 h -288.6758 z m 148.8981,0 69.8898,-121.053 h 139.7741 l 69.8874,121.047 -69.8904,121.053 -139.7744,-10e-4 z"
         sodipodi:nodetypes="cccccccccccccc" />
      <g
         id="g32-0"
         transform="translate(3431.7256,10458.052)"
         style="fill:#b94747;fill-opacity:1">
        <rect
           style="fill:#b94747;fill-opacity:1;stroke:none;stroke-width:16.6;stroke-linejoin:round;stroke-miterlimit:5.6"
           id="rect31-64"
           width="90.097343"
           height="90.097343"
           x="-8118.771"
           y="32147.23" />
        <rect
           style="fill:#b94747;fill-opacity:1;stroke:none;stroke-width:16.6;stroke-linejoin:round;stroke-miterlimit:5.6"
           id="rect31-0-7"
           width="90.097343"
           height="90.097343"
           x="-8028.6738"
           y="32147.23" />
        <rect
           style="fill:#b94747;fill-opacity:1;stroke:none;stroke-width:16.6;stroke-linejoin:round;stroke-miterlimit:5.6"
           id="rect31-2-8"
           width="90.097343"
           height="90.097343"
           x="-8118.771"
           y="32237.328" />
        <rect
           style="fill:#b94747;fill-opacity:1;stroke:none;stroke-width:16.6;stroke-linejoin:round;stroke-miterlimit:5.6"
           id="rect31-3-4"
           width="90.097343"
           height="90.097343"
           x="-8028.6738"
           y="32237.328" />
      </g>
      <path
         id="path11-3-5-6-4-0"
         style="fill:#71a63b;stroke:#000000;stroke-width:10.185;stroke-linejoin:round;stroke-miterlimit:5.6;stroke-opacity:1"
         d="m -4885.6228,42195.379 144.3372,250.001 h 288.6754 l 144.3364,-249.998 -144.338,-250.001 h -288.6759 z m 148.8981,0 69.8883,-121.049 h 139.7759 l 69.8887,121.051 -69.8882,121.052 h -139.776 z"
         sodipodi:nodetypes="cccccccccccccc" />
      <path
         id="path11-3-1-86-3-9-0"
         style="fill:#71a63b;stroke:#000000;stroke-width:10.185;stroke-linejoin:round;stroke-miterlimit:5.6;stroke-opacity:1"
         d="m -4452.61,42445.381 144.3355,250 h 288.674 l 144.337,-250 -144.337,-250 h -288.6761 z m 148.8985,0 69.8882,-121.052 h 139.7755 l 69.8874,121.048 -69.8884,121.053 h -139.7759 z"
         sodipodi:nodetypes="cccccccccccccc" />
      <path
         id="path11-4-2-2-5-6"
         style="fill:#71a63b;stroke:#000000;stroke-width:10.185;stroke-linejoin:round;stroke-miterlimit:5.6;stroke-opacity:1"
         d="m -5174.2972,42195.381 -144.3384,250.002 144.337,249.999 h 288.6751 l 144.337,-249.999 -144.3374,-250 z m 74.4486,128.951 h 139.778 l 69.8886,121.05 -69.8896,121.051 h -139.778 l -69.8882,-121.051 z" />
      <path
         id="path11-3-1-1-5-6-9-2"
         style="fill:#71a63b;stroke:#000000;stroke-width:10.185;stroke-linejoin:round;stroke-miterlimit:5.6;stroke-opacity:1"
         d="m -4452.6108,42945.379 144.3372,250.002 h 288.6757 l 144.337,-249.999 -144.337,-249.999 h -288.6741 z m 148.8994,0 69.8887,-121.053 h 139.7749 l 69.8883,121.051 -69.8885,121.05 h -139.7758 z"
         sodipodi:nodetypes="cccccccccccccc" />
      <path
         id="path11-1-1-8-0-4"
         style="fill:#71a63b;stroke:#000000;stroke-width:10.185;stroke-linejoin:round;stroke-miterlimit:5.6;stroke-opacity:1"
         d="m -5174.2985,42695.381 -144.3381,249.999 144.3386,250.002 h 288.6746 l 144.3377,-250 -144.3373,-250.001 z m 74.45,128.951 h 139.778 l 69.887,121.048 -69.8884,121.052 h -139.7775 l -69.8872,-121.049 z" />
      <path
         id="path11-3-8-3-9-9-7"
         style="fill:#71a63b;stroke:#000000;stroke-width:10.185;stroke-linejoin:round;stroke-miterlimit:5.6;stroke-opacity:1"
         d="m -4885.6233,43195.381 144.3386,250.001 h 288.6759 l 144.337,-249.999 -144.3375,-250.002 h -288.6754 z m 148.8978,0 69.889,-121.05 h 139.7757 l 69.8889,121.05 -69.8895,121.053 h -139.7754 z"
         sodipodi:nodetypes="cccccccccccccc" />
      <path
         id="path11-7-4-4-1"
         style="fill:#71a63b;stroke:#000000;stroke-width:10.185;stroke-linejoin:round;stroke-miterlimit:5.6;stroke-opacity:1"
         d="m -5174.2977,41695.379 -144.3385,250.002 144.3369,249.999 h 288.6741 l 144.3365,-249.998 -144.3394,-250.002 z m 74.4496,128.949 h 139.778 l 69.8873,121.049 -69.8889,121.053 h -139.778 l -69.8887,-121.05 z" />
      <path
         id="path11-15-7-8-0-8"
         style="fill:#71a63b;stroke:none;stroke-width:10.185;stroke-linejoin:round;stroke-miterlimit:5.6"
         d="m -4741.2847,42445.379 -144.3391,250.001 144.3371,250.002 h 288.6741 l 144.3396,-250.005 -144.3367,-249.999 z m 74.4508,128.951 h 139.778 l 69.887,121.047 -69.8897,121.055 h -139.778 l -69.8882,-121.051 z" />
      <path
         id="path30-3-8-7-5"
         style="fill:#ff8e00;fill-opacity:1;stroke:#000000;stroke-width:16.6;stroke-linejoin:round;stroke-miterlimit:5.6;stroke-opacity:1"
         inkscape:transform-center-x="-73.309814"
         inkscape:transform-center-y="-149.71757"
         d="m -5029.9603,41945.381 6e-4,1500 518.6396,-299.437 286.3935,496.051 261.7637,-151.13 -286.394,-496.047 518.6374,-299.435 z" />
      <g
         id="g46-5-7-5-8"
         transform="matrix(-0.28596586,-0.49530739,0.49530739,-0.28596586,-24114.044,48505.837)"
         style="fill:#8f8f8f;fill-opacity:1;stroke:#000000;stroke-opacity:1">
        <path
           id="path40-4-6-5-8-0-1-7-9"
           style="fill:#8f8f8f;fill-opacity:1;stroke:#000000;stroke-width:24.4147;stroke-linejoin:round;stroke-miterlimit:5.6;stroke-dasharray:none;stroke-opacity:1"
           d="m -7970.6713,34398.685 h -9e-4 z m -9e-4,473.168 v 10e-4 z m -22.1964,-481.732 c 1e-4,-7.72 -3.5403,-18.342 -14.7467,-30.706 -11.2043,-12.363 -23.0929,-23.986 -35.5851,-34.829 -24.9846,-21.683 -52.3857,-40.242 -81.5709,-55.35 -58.3741,-30.217 -123.8947,-46.63 -191.5184,-46.63 -182.415,0 -337.4509,117.237 -393.8666,280.475 h -1095.5591 a 114.22479,108.3645 2.2491569e-5 0 0 -114.2249,108.364 v 49.862 a 114.22479,108.3645 2.2491569e-5 0 0 114.2249,108.365 h 1096.3298 c 57.0463,162.084 211.504,278.266 393.0968,278.264 67.6244,10e-4 133.1445,-16.412 191.5157,-46.629 29.1877,-15.108 56.5899,-33.669 81.5727,-55.352 12.4927,-10.842 24.3816,-22.465 35.5869,-34.828 11.2044,-12.364 14.7457,-22.984 14.7449,-30.705 v 0 c 4e-4,-7.721 -16.8954,-8.567 -16.8954,-8.567 h -412.9729 l -135.946,-235.466 v -2.235 l 135.946,-235.465 h 412.9729 c 0,0 16.8961,-0.846 16.8954,-8.566 z" />
      </g>
      <path
         sodipodi:type="star"
         style="fill:#ffffff;fill-opacity:1;stroke:#000000;stroke-width:0.2;stroke-linejoin:round;stroke-miterlimit:5.6"
         id="path17-9"
         inkscape:flatsided="true"
         sodipodi:sides="6"
         sodipodi:cx="-887.93921"
         sodipodi:cy="38439.652"
         sodipodi:r1="139.7775"
         sodipodi:r2="121.05086"
         sodipodi:arg1="2.0943877"
         sodipodi:arg2="2.6179865"
         inkscape:rounded="0"
         inkscape:randomized="0"
         d="m -957.82706,38560.704 -69.88964,-121.051 69.88785,-121.051 139.77749,-10e-4 69.88965,121.05 -69.88785,121.052 z"
         transform="translate(-3709.0095,4255.73)" />
    </g>
  </g>
</svg>
